<?xml version="1.0" encoding="UTF-8"?>
<svg version="1.1" xmlns="http://www.w3.org/2000/svg" width="598" height="126">
<path d="M0 0 C9.85875 -0.04125 19.7175 -0.0825 29.875 -0.125 C34.5153833 -0.15231201 34.5153833 -0.15231201 39.24951172 -0.18017578 C41.72623522 -0.18602195 44.20296065 -0.19111722 46.6796875 -0.1953125 C47.94562744 -0.20554443 49.21156738 -0.21577637 50.51586914 -0.22631836 C69.56302863 -0.23003923 69.56302863 -0.23003923 76 5 C78.7885123 8.89209315 78.33091791 13.35143961 78.3125 17.9375 C78.32861328 18.73607422 78.34472656 19.53464844 78.36132812 20.35742188 C78.36525002 25.09115511 77.98421593 28.10240928 75 32 C75.474375 32.5775 75.94875 33.155 76.4375 33.75 C80.43343135 39.50414115 79.74095542 47.7853912 78.57421875 54.421875 C77.40538872 58.23670677 76.0551071 60.33758694 72.625 62.4375 C67.46003544 64.66377783 63.15885691 65.12457368 57.55737305 65.11352539 C55.60921692 65.11334412 55.60921692 65.11334412 53.6217041 65.11315918 C52.25170849 65.10812463 50.88171335 65.10295811 49.51171875 65.09765625 C47.63208435 65.09614563 47.63208435 65.09614563 45.71447754 65.09460449 C41.03880903 65.08937712 36.36315359 65.07541585 31.6875 65.0625 C21.230625 65.041875 10.77375 65.02125 0 65 C0 43.55 0 22.1 0 0 Z M13 14 C13 26.21 13 38.42 13 51 C20.08430766 51.04583664 27.16810376 51.08568465 34.25244141 51.10986328 C36.66391744 51.11993954 39.07538122 51.13360081 41.48681641 51.15087891 C44.94697085 51.1750559 48.4069642 51.18646669 51.8671875 51.1953125 C53.49223709 51.21079636 53.49223709 51.21079636 55.15011597 51.22659302 C56.1510025 51.22674408 57.15188904 51.22689514 58.18310547 51.22705078 C59.50881058 51.23371262 59.50881058 51.23371262 60.86129761 51.24050903 C63.21481452 51.20095721 63.21481452 51.20095721 65 49 C65.35609192 46.86181539 65.35609192 46.86181539 65.3125 44.5 C65.32925781 43.7059375 65.34601563 42.911875 65.36328125 42.09375 C65.24339844 41.4028125 65.12351563 40.711875 65 40 C61.86469771 37.90979847 61.1816823 37.7525405 57.62036133 37.77294922 C56.29933159 37.77317581 56.29933159 37.77317581 54.95161438 37.77340698 C54.00465195 37.78372955 53.05768951 37.79405212 52.08203125 37.8046875 C51.10965012 37.8075174 50.13726898 37.81034729 49.13542175 37.81326294 C46.02765634 37.82446401 42.92017841 37.84956852 39.8125 37.875 C37.70638437 37.88502989 35.60026422 37.89415573 33.49414062 37.90234375 C28.3293162 37.92440312 23.16470685 37.95893254 18 38 C18 33.71 18 29.42 18 25 C20.08235962 25.00785522 20.08235962 25.00785522 22.20678711 25.01586914 C27.33731445 25.03391346 32.46783897 25.04542992 37.59838867 25.05493164 C39.82267732 25.05997317 42.04696263 25.06680623 44.27124023 25.07543945 C47.46078309 25.08751298 50.65028229 25.09322996 53.83984375 25.09765625 C54.84087631 25.10281754 55.84190887 25.10797882 56.87327576 25.11329651 C58.25459435 25.11340981 58.25459435 25.11340981 59.66381836 25.11352539 C60.88626503 25.11685631 60.88626503 25.11685631 62.13340759 25.12025452 C64.01477856 25.20528245 64.01477856 25.20528245 65 24 C65.22918242 19.98342857 65.22918242 19.98342857 65 16 C63.21481452 13.79904279 63.21481452 13.79904279 60.86129761 13.75949097 C59.5355925 13.7661528 59.5355925 13.7661528 58.18310547 13.77294922 C57.18221893 13.77310028 56.1813324 13.77325134 55.15011597 13.77340698 C54.06674957 13.78372955 52.98338318 13.79405212 51.8671875 13.8046875 C50.20672897 13.80893234 50.20672897 13.80893234 48.51272583 13.81326294 C44.96670863 13.82448481 41.42094125 13.84959309 37.875 13.875 C35.47526406 13.8850272 33.07552417 13.8941535 30.67578125 13.90234375 C24.78367978 13.92273164 18.89212052 13.96187701 13 14 Z " fill="#FDFDFD" transform="translate(179,13)"/>
<path d="M0 0 C9.56203956 -0.06780602 19.12391915 -0.12283351 28.68614483 -0.15543652 C33.12638476 -0.17108517 37.56645152 -0.19230877 42.0065918 -0.22631836 C46.29246025 -0.25894044 50.57816224 -0.27685904 54.86414528 -0.28463173 C56.49840731 -0.29017013 58.13266035 -0.30098535 59.76685143 -0.31719017 C62.05790186 -0.33900272 64.34826654 -0.34196539 66.6394043 -0.34057617 C67.94290329 -0.34723801 69.24640228 -0.35389984 70.58940125 -0.36076355 C74.23527759 0.024887 76.11753325 0.77453827 79 3 C80.39827757 6.23351688 80.15506601 7.60210491 78.875 10.88671875 C76.6673191 14.55238891 74.54726899 16.12399907 71 18.5 C69.73572051 19.36535146 68.472772 20.23264968 67.2109375 21.1015625 C66.53256836 21.5646582 65.85419922 22.02775391 65.15527344 22.50488281 C61.25187449 25.21267791 57.44316792 28.04892981 53.625 30.875 C52.90828125 31.40287109 52.1915625 31.93074219 51.453125 32.47460938 C43.59912944 38.26865347 35.80851495 44.14361379 28 50 C44.83 50.33 61.66 50.66 79 51 C79 55.62 79 60.24 79 65 C69.29030103 65.04517755 59.58067184 65.08187392 49.87089157 65.10362434 C45.36229295 65.11406323 40.85376995 65.12822439 36.34521484 65.15087891 C31.99452216 65.17260348 27.64390222 65.18456783 23.29315948 65.18975449 C21.63296615 65.19345093 19.97277682 65.20066911 18.31261444 65.21146011 C15.98794436 65.22596996 13.66357524 65.22797816 11.33886719 65.22705078 C10.6519429 65.23424133 9.96501862 65.24143188 9.25727844 65.24884033 C5.68693969 65.2334199 2.9808501 65.06454243 0 63 C-1.44430855 60.11138291 -1.37688506 58.20352299 -1 55 C2.74583402 50.73848711 7.17913197 47.40297336 11.6875 44 C12.79484497 43.15840332 12.79484497 43.15840332 13.92456055 42.29980469 C20.01795753 37.69108349 26.19023011 33.19454713 32.40698242 28.75390625 C38.68506617 24.2646161 44.81838698 19.63620977 51 15 C34.17 14.67 17.34 14.34 0 14 C0 9.38 0 4.76 0 0 Z " fill="#FCFCFC" transform="translate(1,13)"/>
<path d="M0 0 C1.34579636 -0.0049926 1.34579636 -0.0049926 2.71878052 -0.01008606 C4.60629773 -0.01512116 6.49382374 -0.01749545 8.38134766 -0.01733398 C11.24266457 -0.01951968 14.10359487 -0.03770987 16.96484375 -0.05664062 C18.80989453 -0.05957557 20.65494712 -0.06155969 22.5 -0.0625 C23.76298416 -0.07327827 23.76298416 -0.07327827 25.05148315 -0.08427429 C32.08665633 -0.05769347 40.15538496 0.0114863 45.8828125 4.54296875 C49.24948525 8.07797514 50.62706244 10.60655665 50.6574707 15.48999023 C50.66700272 16.33444199 50.67653473 17.17889374 50.68635559 18.04893494 C50.68544418 18.95317703 50.68453278 19.85741913 50.68359375 20.7890625 C50.68787888 21.72597427 50.692164 22.66288605 50.69657898 23.62818909 C50.7023163 25.60766798 50.70282695 27.58716795 50.69848633 29.56665039 C50.69532759 32.59102439 50.71878878 35.61441886 50.74414062 38.63867188 C50.74641384 40.56380085 50.74711701 42.48893245 50.74609375 44.4140625 C50.7553035 45.31628036 50.76451324 46.21849823 50.77400208 47.14805603 C50.72812155 53.39140578 49.71660953 56.83417172 45.1953125 61.35546875 C38.65024476 65.5734013 31.35684555 65.46605931 23.8203125 65.43359375 C22.8295874 65.4355072 21.8388623 65.43742065 20.81811523 65.43939209 C18.73388412 65.44074655 16.64964435 65.43710202 14.56542969 65.42871094 C11.39238362 65.41800106 8.21990366 65.42863159 5.046875 65.44140625 C3.0130196 65.44008452 0.97916454 65.43752186 -1.0546875 65.43359375 C-1.99449463 65.43764221 -2.93430176 65.44169067 -3.90258789 65.44586182 C-11.82901341 65.38999918 -19.49368739 64.72184094 -25.6171875 59.16796875 C-29.26417487 51.31225426 -29.04386779 43.40395046 -28.95336914 34.91992188 C-28.92967111 32.54132387 -28.93283749 30.16384337 -28.93945312 27.78515625 C-28.93387789 26.25389965 -28.92676899 24.72264771 -28.91796875 23.19140625 C-28.91888016 22.49018646 -28.91979156 21.78896667 -28.92073059 21.0664978 C-28.8354804 15.06403758 -28.17778354 10.016043 -24.2421875 5.35546875 C-17.20521413 -0.50867572 -8.78587233 0.01155637 0 0 Z M-13.20336914 15.25952148 C-15.3607038 18.17160662 -15.11854053 20.54943427 -15.11328125 24.13671875 C-15.11473648 24.81343628 -15.11619171 25.49015381 -15.11769104 26.18737793 C-15.11603305 27.61633617 -15.10448256 29.04531244 -15.08374023 30.47412109 C-15.05478505 32.66060273 -15.06313009 34.84465917 -15.07617188 37.03125 C-15.06993409 38.42058469 -15.06154282 39.80991173 -15.05078125 41.19921875 C-15.04103271 42.46314453 -15.03128418 43.72707031 -15.02124023 45.02929688 C-14.88767884 48.08904702 -14.88767884 48.08904702 -13.37416077 49.83888245 C-11.14113105 51.52808812 -9.88461842 51.55326006 -7.1015625 51.57202148 C-6.19051758 51.58470566 -5.27947266 51.59738983 -4.34082031 51.61045837 C-3.35952148 51.60752274 -2.37822266 51.6045871 -1.3671875 51.6015625 C-0.3575293 51.60680435 0.65212891 51.6120462 1.69238281 51.6174469 C3.8274646 51.62387153 5.96258176 51.62252442 8.09765625 51.61401367 C11.37043017 51.60550096 14.641461 51.6342643 17.9140625 51.66601562 C19.98697864 51.66762758 22.05989788 51.66705021 24.1328125 51.6640625 C25.11411133 51.67529648 26.09541016 51.68653046 27.10644531 51.69810486 C28.01749023 51.68872391 28.92853516 51.67934296 29.8671875 51.66967773 C30.66866211 51.66951157 31.47013672 51.6693454 32.29589844 51.66917419 C34.54817952 51.32767934 34.54817952 51.32767934 36.13978577 49.32740784 C38.65415737 44.95933418 37.86053445 39.60992421 37.82885742 34.69580078 C37.82033696 32.67377242 37.8491389 30.65456268 37.88085938 28.6328125 C37.88021484 27.35535156 37.87957031 26.07789063 37.87890625 24.76171875 C37.88075928 23.59318359 37.8826123 22.42464844 37.88452148 21.22070312 C37.57121088 18.15589339 37.57121088 18.15589339 35.96899414 15.78686523 C31.95959156 13.27706173 28.14641322 13.61579776 23.5078125 13.671875 C22.06559326 13.66969215 22.06559326 13.66969215 20.59423828 13.66746521 C18.56344571 13.66912361 16.53264049 13.68067831 14.50195312 13.70141602 C11.39398802 13.73036466 8.28772936 13.72202477 5.1796875 13.70898438 C3.20572088 13.71522211 1.23175964 13.72361332 -0.7421875 13.734375 C-1.67144043 13.73143936 -2.60069336 13.72850372 -3.55810547 13.72547913 C-7.11208289 13.77743171 -9.90989259 13.86943995 -13.20336914 15.25952148 Z " fill="#000000" transform="translate(447.6171875,12.83203125)"/>
<path d="M0 0 C2.28192849 -0.00218529 4.56337158 -0.02038548 6.84521484 -0.03930664 C27.66102965 -0.12074811 27.66102965 -0.12074811 36.41943359 6.18530273 C40.01143079 10.81708859 41.54760893 14.29969396 41.53295898 20.11572266 C41.53284569 21.61693916 41.53284569 21.61693916 41.5327301 23.14848328 C41.52756882 24.22668839 41.52240753 25.30489349 41.51708984 26.41577148 C41.5156749 27.52132889 41.51425995 28.62688629 41.51280212 29.76594543 C41.50719873 33.30159191 41.49464564 36.83717536 41.48193359 40.37280273 C41.47691903 42.76798411 41.47235605 45.16316648 41.46826172 47.55834961 C41.4572282 53.43402498 41.43996126 59.30965317 41.41943359 65.18530273 C37.12943359 65.18530273 32.83943359 65.18530273 28.41943359 65.18530273 C28.41943359 58.58530273 28.41943359 51.98530273 28.41943359 45.18530273 C12.90943359 45.18530273 -2.60056641 45.18530273 -18.58056641 45.18530273 C-18.58056641 40.89530273 -18.58056641 36.60530273 -18.58056641 32.18530273 C-3.07056641 32.18530273 12.43943359 32.18530273 28.41943359 32.18530273 C28.57874568 20.39424898 28.57874568 20.39424898 25.41943359 16.18530273 C22.73068105 15.28905189 21.1403559 15.05074257 18.37866211 15.02416992 C17.57094864 15.01456238 16.76323517 15.00495483 15.93104553 14.99505615 C15.06225266 14.99080627 14.19345978 14.9865564 13.29833984 14.98217773 C12.40203354 14.97647766 11.50572723 14.97077759 10.58226013 14.96490479 C8.6867694 14.9554611 6.79126229 14.94892331 4.89575195 14.94506836 C1.99645426 14.9353514 -0.90213785 14.90431771 -3.80126953 14.87280273 C-5.6430622 14.86627358 -7.48485993 14.86102276 -9.32666016 14.85717773 C-10.1934288 14.84483093 -11.06019745 14.83248413 -11.95323181 14.81976318 C-12.76409744 14.82276428 -13.57496307 14.82576538 -14.41040039 14.82885742 C-15.12082993 14.82521179 -15.83125946 14.82156616 -16.56321716 14.81781006 C-19.28892455 15.31434159 -20.62439944 16.23445423 -22.58056641 18.18530273 C-23.19398253 20.36918314 -23.19398253 20.36918314 -23.12646484 22.84033203 C-23.14618347 23.78108078 -23.1659021 24.72182953 -23.18621826 25.69108582 C-23.18806122 27.20996147 -23.18806122 27.20996147 -23.18994141 28.75952148 C-23.20647766 29.79849075 -23.22301392 30.83746002 -23.24005127 31.90791321 C-23.28867498 35.22960231 -23.30993454 38.55083316 -23.33056641 41.87280273 C-23.35871399 44.12347701 -23.38863969 46.37412981 -23.42041016 48.62475586 C-23.49443812 54.14490045 -23.54392513 59.66478847 -23.58056641 65.18530273 C-28.20056641 65.18530273 -32.82056641 65.18530273 -37.58056641 65.18530273 C-37.65516422 58.81732698 -37.70937946 52.44961009 -37.74536133 46.08129883 C-37.76037408 43.91849329 -37.78079057 41.75571781 -37.80688477 39.59301758 C-37.84360006 36.47005762 -37.86036837 33.34750294 -37.87353516 30.22436523 C-37.88901901 29.26978424 -37.90450287 28.31520325 -37.92045593 27.33169556 C-37.9221438 20.47722292 -37.56911268 12.65526009 -32.90422058 7.23892212 C-23.72366337 -1.15777914 -11.70110085 -0.00125306 0 0 Z " fill="#FCFCFC" transform="translate(126.58056640625,12.814697265625)"/>
<path d="M0 0 C4.62 0 9.24 0 14 0 C14.01981934 1.44358887 14.03963867 2.88717773 14.06005859 4.37451172 C14.13596638 9.71583906 14.22470618 15.05688866 14.31738281 20.39794922 C14.35573401 22.71234669 14.3905759 25.02680502 14.421875 27.34130859 C14.4673924 30.66265664 14.52540843 33.98358341 14.5859375 37.3046875 C14.59748871 38.34430634 14.60903992 39.38392517 14.62094116 40.45504761 C14.64081085 41.41589264 14.66068054 42.37673767 14.68115234 43.36669922 C14.69447601 44.21497284 14.70779968 45.06324646 14.7215271 45.93722534 C14.81776158 48.22186119 14.81776158 48.22186119 17 50 C19.0054799 50.29831576 19.0054799 50.29831576 21.32617188 50.24291992 C22.22049927 50.24599655 23.11482666 50.24907318 24.03625488 50.25224304 C25.00397827 50.24505753 25.97170166 50.23787201 26.96875 50.23046875 C27.95999878 50.23001053 28.95124756 50.22955231 29.97253418 50.2290802 C32.07073156 50.22605582 34.16892665 50.21816401 36.26708984 50.20581055 C39.48673417 50.18757513 42.70609072 50.18530068 45.92578125 50.18554688 C47.96094 50.18063098 49.99609679 50.17480236 52.03125 50.16796875 C52.99897339 50.16685593 53.96669678 50.1657431 54.96374512 50.16459656 C55.85807251 50.15821671 56.7523999 50.15183685 57.67382812 50.14526367 C58.46277466 50.14145187 59.25172119 50.13764008 60.0645752 50.13371277 C62.08258795 50.11891592 62.08258795 50.11891592 64 49 C64.33 32.83 64.66 16.66 65 0 C69.62 0 74.24 0 79 0 C79.07430976 7.27740256 79.12867854 14.55458287 79.16479492 21.83227539 C79.1798556 24.3065984 79.20030825 26.78089482 79.22631836 29.25512695 C79.2628203 32.8172869 79.27975404 36.379093 79.29296875 39.94140625 C79.30845261 41.04271378 79.32393646 42.1440213 79.33988953 43.27870178 C79.34145247 50.45598844 78.94741475 55.88416155 73.8125 61.3125 C67.14654647 65.31207212 59.98940053 65.29815676 52.4375 65.265625 C51.4467749 65.26753845 50.4560498 65.2694519 49.43530273 65.27142334 C47.35107162 65.2727778 45.26683185 65.26913327 43.18261719 65.26074219 C40.00957112 65.25003231 36.83709116 65.26066284 33.6640625 65.2734375 C31.6302071 65.27211577 29.59635204 65.26955311 27.5625 65.265625 C26.62269287 65.26967346 25.68288574 65.27372192 24.71459961 65.27789307 C17.35140483 65.22599989 10.04130241 64.66043329 4 60 C-0.96755153 53.43573547 -0.13654872 45.53853926 -0.09765625 37.6953125 C-0.0962413 36.61619598 -0.09482635 35.53707947 -0.09336853 34.42526245 C-0.08778844 30.99181298 -0.07523955 27.55842964 -0.0625 24.125 C-0.05748243 21.79166761 -0.05291997 19.4583342 -0.04882812 17.125 C-0.03782552 11.41664133 -0.02057456 5.70833187 0 0 Z " fill="#FDFDFD" transform="translate(267,13)"/>
<path d="M0 0 C4.50422179 0.29911651 7.15598334 2.36818947 10.3203125 5.42578125 C11.45092281 6.44905305 12.58380928 7.46981455 13.71875 8.48828125 C14.58064941 9.27332031 14.58064941 9.27332031 15.45996094 10.07421875 C18.18581239 12.49174373 21.05915552 14.70445495 23.9453125 16.92578125 C30.09850237 21.70541362 36.11863907 26.63513722 42.12182617 31.60131836 C47.43598719 35.9959683 52.79364737 40.32624543 58.1953125 44.61328125 C58.5253125 37.68328125 58.8553125 30.75328125 59.1953125 23.61328125 C63.8153125 23.61328125 68.4353125 23.61328125 73.1953125 23.61328125 C73.24486213 28.64866715 73.28110287 33.68391015 73.30517578 38.71948242 C73.31521458 40.43142164 73.32884845 42.1433438 73.34619141 43.85522461 C73.37053323 46.32019267 73.38181688 48.7849334 73.390625 51.25 C73.40610886 52.39247444 73.40610886 52.39247444 73.42190552 53.55802917 C73.42276805 57.67118158 73.2226085 60.98697343 71.1953125 64.61328125 C68.1953125 66.61328125 68.1953125 66.61328125 65.3125 66.47265625 C61.77691986 65.49793491 60.06860403 64.2691339 57.3203125 61.86328125 C56.37542969 61.05503906 55.43054688 60.24679688 54.45703125 59.4140625 C53.94060059 58.96756348 53.42416992 58.52106445 52.89208984 58.06103516 C49.69006285 55.32894593 46.40519739 52.69777702 43.1328125 50.05078125 C41.74606638 48.92451287 40.35934702 47.79821153 38.97265625 46.671875 C35.30095464 43.69523547 31.61178382 40.74112228 27.9140625 37.796875 C25.6344441 35.96597459 23.36585732 34.12319378 21.1015625 32.2734375 C20.01294922 31.38495117 20.01294922 31.38495117 18.90234375 30.47851562 C17.45050211 29.29263081 15.99994342 28.10517329 14.55078125 26.91601562 C13.88691406 26.37396484 13.22304688 25.83191406 12.5390625 25.2734375 C11.94287109 24.78496338 11.34667969 24.29648926 10.73242188 23.79321289 C9.18855583 22.53078552 9.18855583 22.53078552 7.1953125 21.61328125 C7.1953125 36.13328125 7.1953125 50.65328125 7.1953125 65.61328125 C2.5753125 65.61328125 -2.0446875 65.61328125 -6.8046875 65.61328125 C-6.87253747 57.87664437 -6.92754633 50.1401187 -6.96012402 42.40325642 C-6.97576189 38.81047296 -6.99696529 35.2179041 -7.03100586 31.62524414 C-7.06366715 28.15633734 -7.08155464 24.68763661 -7.08931923 21.21858788 C-7.09753768 19.25489373 -7.12094642 17.29128217 -7.14457703 15.32771301 C-7.14480362 14.12684555 -7.14503021 12.92597809 -7.14526367 11.6887207 C-7.15192551 10.63393021 -7.15858734 9.57913971 -7.16545105 8.49238586 C-6.50947329 3.2572988 -5.30854384 0.8556893 0 0 Z " fill="#000000" transform="translate(514.8046875,12.38671875)"/>
<path d="M0 0 C4.62 0 9.24 0 14 0 C14 16.83 14 33.66 14 51 C28.52 51 43.04 51 58 51 C58 55.62 58 60.24 58 65 C38.86 65 19.72 65 0 65 C0 43.55 0 22.1 0 0 Z " fill="#FDFDFD" transform="translate(356,13)"/>
<path d="M0 0 C3.53140768 0.44807108 5.36715946 1.93557122 7.9375 4.3125 C10.24937128 6.42127231 12.51712973 8.39862084 15 10.3125 C15.66 10.869375 16.32 11.42625 17 12 C17 12.66 17 13.32 17 14 C14.36 14 11.72 14 9 14 C9 16.31 9 18.62 9 21 C4.38 21 -0.24 21 -5 21 C-5 18.69 -5 16.38 -5 14 C-7.97 14 -10.94 14 -14 14 C-11.87412192 9.74824385 -10.11286447 8.2115815 -6.4375 5.3125 C-5.44621094 4.52488281 -4.45492187 3.73726563 -3.43359375 2.92578125 C-2.22896484 1.97251953 -2.22896484 1.97251953 -1 1 C-0.67 0.67 -0.34 0.34 0 0 Z " fill="#000000" transform="translate(579,0)"/>
<path d="M0 0 C18.15 0 36.3 0 55 0 C55 1.65 55 3.3 55 5 C36.85 5 18.7 5 0 5 C0 3.35 0 1.7 0 0 Z " fill="#000000" transform="translate(1,117)"/>
<path d="M0 0 C17.82 0 35.64 0 54 0 C54 1.65 54 3.3 54 5 C36.18 5 18.36 5 0 5 C0 3.35 0 1.7 0 0 Z " fill="#000000" transform="translate(544,117)"/>
<path d="M0 0 C1.98 0 3.96 0 6 0 C5.67 2.64 5.34 5.28 5 8 C7.64 7.67 10.28 7.34 13 7 C13 9.31 13 11.62 13 14 C10.36 13.67 7.72 13.34 5 13 C5.33 19.6 5.66 26.2 6 33 C4.02 33 2.04 33 0 33 C0 26.4 0 19.8 0 13 C-2.31 13.33 -4.62 13.66 -7 14 C-7 11.69 -7 9.38 -7 7 C-4.69 7.33 -2.38 7.66 0 8 C0 5.36 0 2.72 0 0 Z " fill="#F9F9F9" transform="translate(457,29)"/>
<path d="M0 0 C1.32 0.33 2.64 0.66 4 1 C4.33 2.32 4.66 3.64 5 5 C5.99 5 6.98 5 8 5 C8 5.66 8 6.32 8 7 C4.7 7 1.4 7 -2 7 C-2 7.99 -2 8.98 -2 10 C0.97 10 3.94 10 7 10 C7 10.66 7 11.32 7 12 C4.03 12 1.06 12 -2 12 C-2 13.65 -2 15.3 -2 17 C1.3 17 4.6 17 8 17 C8 17.66 8 18.32 8 19 C3.71 19 -0.58 19 -5 19 C-5 14.38 -5 9.76 -5 5 C-4.01 5 -3.02 5 -2 5 C-1.34 3.35 -0.68 1.7 0 0 Z M1 3 C2 5 2 5 2 5 Z " fill="#FDFDFD" transform="translate(114,107)"/>
<path d="M0 0 C2.57256466 0.51451293 5.14583498 1.03730662 7.6875 1.6875 C8.8321875 1.8421875 8.8321875 1.8421875 10 2 C10.66 1.34 11.32 0.68 12 0 C13.32 0 14.64 0 16 0 C16 4.62 16 9.24 16 14 C15.01 14 14.02 14 13 14 C13 10.7 13 7.4 13 4 C11.68 4.99 10.36 5.98 9 7 C7 6 5 5 3 4 C3 7.3 3 10.6 3 14 C2.01 14 1.02 14 0 14 C0 9.38 0 4.76 0 0 Z " fill="#FCFCFC" transform="translate(248,112)"/>
<path d="M0 0 C8.3984375 -0.1953125 8.3984375 -0.1953125 11 0 C13 2 13 2 13.1875 4.9375 C13 8 13 8 12 11 C12.33 11.99 12.66 12.98 13 14 C11.68 14 10.36 14 9 14 C8.34 13.01 7.68 12.02 7 11 C4.94074861 10.27617533 4.94074861 10.27617533 3 10 C3 11.32 3 12.64 3 14 C2.01 14 1.02 14 0 14 C0 9.38 0 4.76 0 0 Z M3 2 C3 3.98 3 5.96 3 8 C4.98 8 6.96 8 9 8 C9.38218767 6.34385343 9.71395102 4.67542976 10 3 C8.87465895 1.64381501 8.87465895 1.64381501 5.9375 1.9375 C4.968125 1.958125 3.99875 1.97875 3 2 Z " fill="#FDFDFD" transform="translate(289,112)"/>
<path d="M0 0 C1.588125 -0.061875 3.17625 -0.12375 4.8125 -0.1875 C6.15248047 -0.23970703 6.15248047 -0.23970703 7.51953125 -0.29296875 C10 0 10 0 11.80078125 1.26171875 C13.23613172 3.34227562 13.40352591 4.48971967 13.375 7 C13.38273437 7.680625 13.39046875 8.36125 13.3984375 9.0625 C12.86968681 11.63367981 12.14595327 12.49643621 10 14 C7.51953125 14.29296875 7.51953125 14.29296875 4.8125 14.1875 C3.224375 14.125625 1.63625 14.06375 0 14 C0 9.38 0 4.76 0 0 Z M3 2 C3 5.3 3 8.6 3 12 C6.81813447 11.72459296 6.81813447 11.72459296 10 10 C10.33340471 7.04195427 10.33340471 7.04195427 10 4 C7.04622502 1.63019987 7.04622502 1.63019987 3 2 Z " fill="#FDFDFD" transform="translate(421,112)"/>
<path d="M0 0 C1.588125 -0.061875 3.17625 -0.12375 4.8125 -0.1875 C6.15248047 -0.23970703 6.15248047 -0.23970703 7.51953125 -0.29296875 C10 0 10 0 11.80078125 1.26171875 C13.23613172 3.34227562 13.40352591 4.48971967 13.375 7 C13.38273438 7.680625 13.39046875 8.36125 13.3984375 9.0625 C12.86968681 11.63367981 12.14595327 12.49643621 10 14 C7.51953125 14.29296875 7.51953125 14.29296875 4.8125 14.1875 C3.224375 14.125625 1.63625 14.06375 0 14 C0 9.38 0 4.76 0 0 Z M3 2 C3 5.3 3 8.6 3 12 C6.81813447 11.72459296 6.81813447 11.72459296 10 10 C10.33340471 7.04195427 10.33340471 7.04195427 10 4 C7.04622502 1.63019987 7.04622502 1.63019987 3 2 Z " fill="#FDFDFD" transform="translate(202,112)"/>
<path d="M0 0 C0.66 0.33 1.32 0.66 2 1 C2 1.99 2 2.98 2 4 C1.05125 3.814375 0.1025 3.62875 -0.875 3.4375 C-3.89868793 2.71313368 -3.89868793 2.71313368 -6 4 C-6 5.98 -6 7.96 -6 10 C-4.16299211 10.77242269 -4.16299211 10.77242269 -2 11 C-0.22809091 9.64555699 -0.22809091 9.64555699 1 8 C-0.32 8 -1.64 8 -3 8 C-3 7.34 -3 6.68 -3 6 C-0.69 6 1.62 6 4 6 C4.25 8.3125 4.25 8.3125 4 11 C1.60918389 13.77334669 0.100403 13.98943126 -3.5625 14.375 C-7 14 -7 14 -8.9375 13 C-10.65886567 9.75978228 -10.52960415 6.58042244 -10 3 C-7.82423933 -1.09554949 -4.20346489 -0.30570654 0 0 Z " fill="#FCFCFC" transform="translate(459,112)"/>
<path d="M0 0 C0.66 0.33 1.32 0.66 2 1 C2 1.99 2 2.98 2 4 C1.05125 3.814375 0.1025 3.62875 -0.875 3.4375 C-3.89868793 2.71313368 -3.89868793 2.71313368 -6 4 C-6 5.98 -6 7.96 -6 10 C-4.16299211 10.77242269 -4.16299211 10.77242269 -2 11 C-0.22809091 9.64555699 -0.22809091 9.64555699 1 8 C-0.32 8 -1.64 8 -3 8 C-3 7.34 -3 6.68 -3 6 C-0.69 6 1.62 6 4 6 C4.25 8.3125 4.25 8.3125 4 11 C1.60918389 13.77334669 0.100403 13.98943126 -3.5625 14.375 C-7 14 -7 14 -8.9375 13 C-10.65886567 9.75978228 -10.52960415 6.58042244 -10 3 C-7.82423933 -1.09554949 -4.20346489 -0.30570654 0 0 Z " fill="#FCFCFC" transform="translate(403,112)"/>
<path d="M0 0 C6.75 1.125 6.75 1.125 10 3 C10 2.01 10 1.02 10 0 C10.99 0 11.98 0 13 0 C13 4.62 13 9.24 13 14 C12.01 14 11.02 14 10 14 C10 11.36 10 8.72 10 6 C8.02 5.34 6.04 4.68 4 4 C3.67 7.3 3.34 10.6 3 14 C2.01 14 1.02 14 0 14 C0 9.38 0 4.76 0 0 Z " fill="#FCFCFC" transform="translate(374,112)"/>
<path d="M0 0 C6.75 1.125 6.75 1.125 10 3 C10 2.01 10 1.02 10 0 C10.99 0 11.98 0 13 0 C13 4.62 13 9.24 13 14 C12.01 14 11.02 14 10 14 C10 11.36 10 8.72 10 6 C8.02 5.34 6.04 4.68 4 4 C3.67 7.3 3.34 10.6 3 14 C2.01 14 1.02 14 0 14 C0 9.38 0 4.76 0 0 Z " fill="#FCFCFC" transform="translate(128,112)"/>
<path d="M0 0 C0.66 0.33 1.32 0.66 2 1 C2 1.99 2 2.98 2 4 C1.05125 3.814375 0.1025 3.62875 -0.875 3.4375 C-3.89868793 2.71313368 -3.89868793 2.71313368 -6 4 C-6 5.98 -6 7.96 -6 10 C-4.16299211 10.77242269 -4.16299211 10.77242269 -2 11 C-0.22809091 9.64555699 -0.22809091 9.64555699 1 8 C-0.32 8 -1.64 8 -3 8 C-3 7.34 -3 6.68 -3 6 C-0.69 6 1.62 6 4 6 C4.25 8.3125 4.25 8.3125 4 11 C1.60918389 13.77334669 0.100403 13.98943126 -3.5625 14.375 C-7 14 -7 14 -8.9375 13 C-10.65886567 9.75978228 -10.52960415 6.58042244 -10 3 C-7.82423933 -1.09554949 -4.20346489 -0.30570654 0 0 Z " fill="#FCFCFC" transform="translate(98,112)"/>
<path d="M0 0 C0.99 0 1.98 0 3 0 C3 0.99 3 1.98 3 3 C3.721875 2.505 4.44375 2.01 5.1875 1.5 C8.14848659 -0.07919285 9.71253029 -0.28178312 13 0 C11.625 1.5 11.625 1.5 10 3 C9.34 3 8.68 3 8 3 C9.65 6.63 11.3 10.26 13 14 C11.68 14 10.36 14 9 14 C7.02 10.535 7.02 10.535 5 7 C4.67 7 4.34 7 4 7 C3.67 9.31 3.34 11.62 3 14 C2.01 14 1.02 14 0 14 C0 9.38 0 4.76 0 0 Z " fill="#FCFCFC" transform="translate(309,112)"/>
<path d="M0 0 C4.29 0 8.58 0 13 0 C13 0.66 13 1.32 13 2 C9.7 2 6.4 2 3 2 C3 2.99 3 3.98 3 5 C5.97 5 8.94 5 12 5 C12 5.66 12 6.32 12 7 C9.03 7 6.06 7 3 7 C3 8.65 3 10.3 3 12 C6.3 12 9.6 12 13 12 C13 12.66 13 13.32 13 14 C8.71 14 4.42 14 0 14 C0 9.38 0 4.76 0 0 Z " fill="#FDFDFD" transform="translate(328,112)"/>
<path d="M0 0 C4.29 0 8.58 0 13 0 C13 0.66 13 1.32 13 2 C9.7 2 6.4 2 3 2 C3 2.99 3 3.98 3 5 C5.97 5 8.94 5 12 5 C12 5.66 12 6.32 12 7 C9.03 7 6.06 7 3 7 C3 8.65 3 10.3 3 12 C6.3 12 9.6 12 13 12 C13 12.66 13 13.32 13 14 C8.71 14 4.42 14 0 14 C0 9.38 0 4.76 0 0 Z " fill="#FDFDFD" transform="translate(221,112)"/>
<path d="M0 0 C1.32 0 2.64 0 4 0 C5.65 4.62 7.3 9.24 9 14 C7.68 14 6.36 14 5 14 C5 13.34 5 12.68 5 12 C1.7 12.66 -1.6 13.32 -5 14 C-2.05357143 3.82142857 -2.05357143 3.82142857 0 0 Z M1 4 C0.67 5.98 0.34 7.96 0 10 C1.32 9.67 2.64 9.34 4 9 C3.34 7.35 2.68 5.7 2 4 C1.67 4 1.34 4 1 4 Z " fill="#FDFDFD" transform="translate(498,112)"/>
<path d="M0 0 C1.32 0 2.64 0 4 0 C5.65 4.62 7.3 9.24 9 14 C7.68 14 6.36 14 5 14 C5 13.34 5 12.68 5 12 C1.7 12.66 -1.6 13.32 -5 14 C-2.05357143 3.82142857 -2.05357143 3.82142857 0 0 Z M1 4 C0.67 5.98 0.34 7.96 0 10 C1.32 9.67 2.64 9.34 4 9 C3.34 7.35 2.68 5.7 2 4 C1.67 4 1.34 4 1 4 Z " fill="#FDFDFD" transform="translate(274,112)"/>
<path d="M0 0 C1.32 0 2.64 0 4 0 C5.65 4.62 7.3 9.24 9 14 C7.68 14 6.36 14 5 14 C5 13.34 5 12.68 5 12 C1.7 12.66 -1.6 13.32 -5 14 C-2.05357143 3.82142857 -2.05357143 3.82142857 0 0 Z M1 4 C0.67 5.98 0.34 7.96 0 10 C1.32 9.67 2.64 9.34 4 9 C3.34 7.35 2.68 5.7 2 4 C1.67 4 1.34 4 1 4 Z " fill="#FDFDFD" transform="translate(179,112)"/>
<path d="M0 0 C1.32 0 2.64 0 4 0 C5.65 4.62 7.3 9.24 9 14 C7.68 14 6.36 14 5 14 C5 13.34 5 12.68 5 12 C1.7 12.66 -1.6 13.32 -5 14 C-2.05357143 3.82142857 -2.05357143 3.82142857 0 0 Z M1 4 C0.67 5.98 0.34 7.96 0 10 C1.32 9.67 2.64 9.34 4 9 C3.34 7.35 2.68 5.7 2 4 C1.67 4 1.34 4 1 4 Z " fill="#FDFDFD" transform="translate(75,112)"/>
<path d="M0 0 C1.9375 1.5 1.9375 1.5 3 3 C-0.2192268 4.0730756 -0.90206442 3.79946725 -4 3 C-4.99 3.495 -4.99 3.495 -6 4 C-6 5.98 -6 7.96 -6 10 C-2.67465243 11.10844919 -0.37817425 10.84454356 3 10 C2 13 2 13 0 14 C-6.13545817 14.44621514 -6.13545817 14.44621514 -8.9375 13 C-10.65886567 9.75978228 -10.52960415 6.58042244 -10 3 C-7.83160257 -1.08168929 -4.19435544 -0.44939523 0 0 Z " fill="#FBFBFB" transform="translate(157,112)"/>
<path d="M0 0 C4.62 0 9.24 0 14 0 C14 1.98 14 3.96 14 6 C9.38 6 4.76 6 0 6 C0 4.02 0 2.04 0 0 Z " fill="#000000" transform="translate(574,23)"/>
<path d="M0 0 C4.62 0 9.24 0 14 0 C14 1.65 14 3.3 14 5 C9.38 5 4.76 5 0 5 C0 3.35 0 1.7 0 0 Z " fill="#000000" transform="translate(574,30)"/>
<path d="M0 0 C4.62 0 9.24 0 14 0 C14 0.66 14 1.32 14 2 C12.02 2 10.04 2 8 2 C8 5.96 8 9.92 8 14 C7.01 14 6.02 14 5 14 C5 10.04 5 6.08 5 2 C3.35 2 1.7 2 0 2 C0 1.34 0 0.68 0 0 Z " fill="#FDFDFD" transform="translate(477,112)"/>
<path d="M0 0 C4.62 0 9.24 0 14 0 C14 0.66 14 1.32 14 2 C12.02 2 10.04 2 8 2 C8 5.96 8 9.92 8 14 C7.01 14 6.02 14 5 14 C5 10.04 5 6.08 5 2 C3.35 2 1.7 2 0 2 C0 1.34 0 0.68 0 0 Z " fill="#FDFDFD" transform="translate(345,112)"/>
<path d="M0 0 C0.99 0 1.98 0 3 0 C3 3.96 3 7.92 3 12 C6.3 12 9.6 12 13 12 C13 12.66 13 13.32 13 14 C8.71 14 4.42 14 0 14 C0 9.38 0 4.76 0 0 Z " fill="#FDFDFD" transform="translate(513,112)"/>
<path d="M0 0 C0.99 0 1.98 0 3 0 C3 4.62 3 9.24 3 14 C2.01 14 1.02 14 0 14 C0 9.38 0 4.76 0 0 Z " fill="#FCFCFC" transform="translate(470,112)"/>
<path d="M0 0 C0.99 0 1.98 0 3 0 C3 4.62 3 9.24 3 14 C2.01 14 1.02 14 0 14 C0 9.38 0 4.76 0 0 Z " fill="#FCFCFC" transform="translate(441,112)"/>
<path d="M0 0 C0.99 0 1.98 0 3 0 C3 4.62 3 9.24 3 14 C2.01 14 1.02 14 0 14 C0 9.38 0 4.76 0 0 Z " fill="#FCFCFC" transform="translate(365,112)"/>
<path d="M0 0 C0.99 0 1.98 0 3 0 C3 4.62 3 9.24 3 14 C2.01 14 1.02 14 0 14 C0 9.38 0 4.76 0 0 Z " fill="#FCFCFC" transform="translate(166,112)"/>
</svg>
